<?xml version="1.0" encoding="UTF-8" standalone="no"?>
<!-- Created with Inkscape (http://www.inkscape.org/) -->

<svg
   xmlns:dc="http://purl.org/dc/elements/1.1/"
   xmlns:cc="http://creativecommons.org/ns#"
   xmlns:rdf="http://www.w3.org/1999/02/22-rdf-syntax-ns#"
   xmlns:svg="http://www.w3.org/2000/svg"
   xmlns="http://www.w3.org/2000/svg"
   xmlns:sodipodi="http://sodipodi.sourceforge.net/DTD/sodipodi-0.dtd"
   xmlns:inkscape="http://www.inkscape.org/namespaces/inkscape"
   width="210mm"
   height="297mm"
   viewBox="0 0 210 297"
   version="1.1"
   id="svg830"
   inkscape:version="0.92.4 (5da689c313, 2019-01-14)"
   sodipodi:docname="background.svg">
  <defs
     id="defs824" />
  <sodipodi:namedview
     id="base"
     pagecolor="#ffffff"
     bordercolor="#666666"
     borderopacity="1.0"
     inkscape:pageopacity="0.0"
     inkscape:pageshadow="2"
     inkscape:zoom="0.49497475"
     inkscape:cx="-179.87316"
     inkscape:cy="456.88447"
     inkscape:document-units="mm"
     inkscape:current-layer="layer1"
     showgrid="false"
     inkscape:pagecheckerboard="false"
     inkscape:window-width="1920"
     inkscape:window-height="1017"
     inkscape:window-x="-8"
     inkscape:window-y="-8"
     inkscape:window-maximized="1" />
  <metadata
     id="metadata827">
    <rdf:RDF>
      <cc:Work
         rdf:about="">
        <dc:format>image/svg+xml</dc:format>
        <dc:type
           rdf:resource="http://purl.org/dc/dcmitype/StillImage" />
        <dc:title />
      </cc:Work>
    </rdf:RDF>
  </metadata>
  <g
     inkscape:groupmode="layer"
     id="layer2"
     inkscape:label="Layer 2">
    <rect
       style="fill:#c0c0ce;fill-opacity:0.81568629;stroke-width:0.26458332"
       id="rect826"
       width="233.59355"
       height="308.96356"
       x="-8.0180855"
       y="-6.6181808" />
  </g>
  <g
     inkscape:label="Layer 1"
     inkscape:groupmode="layer"
     id="layer1"
     style="display:inline">
    <path
       style="opacity:1;fill:#aaafc8;fill-opacity:0.92941177;stroke:none;stroke-width:4.4609766;stroke-linecap:round;stroke-linejoin:round;stroke-miterlimit:14.39999962;stroke-dasharray:none;stroke-opacity:1;paint-order:fill markers stroke"
       d="M 198.88628,-26.660431 A 14.11731,14.11731 0 0 0 184.76889,-12.54346 14.11731,14.11731 0 0 0 195.98988,1.2572473 V 24.959897 H 172.96504 V -7.4267327 c 0,-0.04032 -0.005,-0.07971 -0.005,-0.11934 l 0.001,-0.236525 c 0.002,-0.694398 -0.55538,-1.258031 -1.24974,-1.263708 l -23.7767,-0.195116 a 14.11731,14.11731 0 0 0 -13.94975,-12.0661033 14.11731,14.11731 0 0 0 -14.11741,14.1169473 14.11731,14.11731 0 0 0 14.11741,14.117415 14.11731,14.11731 0 0 0 13.6112,-10.378081 l 19.57742,0.160587 V 24.959827 h -4.4167 c -3.67501,0 -6.63355,2.95855 -6.63355,6.63356 v 12.39845 l -37.42539,-0.20091 v -13.23483 a 14.11731,14.11731 0 0 0 11.39657,-13.84863 14.11731,14.11731 0 0 0 -14.11741,-14.1169977 14.11731,14.11731 0 0 0 -14.1174,14.1169977 14.11731,14.11731 0 0 0 11.04545,13.76103 v 18.19692 c 0,0.49189 0.3959,0.8878 0.88777,0.8878 h 0.84384 c 0.0621,0.007 0.12513,0.0116 0.18909,0.0116 l 41.29761,0.22084 v 24.3003 c 0,0.25828 0.0162,0.5124 0.0445,0.7628 l -26.92797,-0.15549 a 14.11731,14.11731 0 0 0 -13.96317,-12.15277 14.11731,14.11731 0 0 0 -14.11741,14.11697 14.11731,14.11731 0 0 0 14.11741,14.11741 14.11731,14.11731 0 0 0 13.58638,-10.29009 l 33.13634,0.19072 c 0.24872,0.028 0.50109,0.044 0.75755,0.044 h 4.19628 v 22.120083 l -20.62159,-0.17032 a 14.11731,14.11731 0 0 0 -13.90786,-11.789493 14.11731,14.11731 0 0 0 -14.11741,14.116973 14.11731,14.11731 0 0 0 14.11741,14.11739 14.11731,14.11731 0 0 0 13.67307,-10.65381 l 21.83999,0.18028 c 0.10081,0.025 0.20578,0.0396 0.31451,0.0396 h 3.19655 c 0.0927,0 0.18284,-0.0116 0.27008,-0.0283 0.58532,-0.0973 1.02962,-0.60061 1.03154,-1.21581 l 0.0116,-3.30414 c 1.8e-4,-0.06 -0.005,-0.11911 -0.0116,-0.17681 V 80.719447 h 20.51833 v 25.786663 a 14.11731,14.11731 0 0 0 -11.39089,13.84733 14.11731,14.11731 0 0 0 14.11739,14.11739 14.11731,14.11731 0 0 0 14.11741,-14.11739 14.11731,14.11731 0 0 0 -11.05067,-13.76194 V 80.719447 h 6.19053 c 3.67499,0 6.63353,-2.95852 6.63353,-6.63353 v -3.53937 l 22.9212,0.18167 v 24.55257 a 14.11731,14.11731 0 0 0 -11.27371,13.825543 14.11731,14.11731 0 0 0 14.11741,14.11742 14.11731,14.11731 0 0 0 14.11739,-14.11742 14.11731,14.11731 0 0 0 -11.16783,-13.788103 v -28.8721 c 0,-0.0315 -0.005,-0.0621 -0.005,-0.0931 l 4.4e-4,-0.0737 c 0.002,-0.71935 -0.57487,-1.30287 -1.29422,-1.30857 l -27.41587,-0.21736 v -20.97879 l 31.79465,0.20346 c 0.0825,0.0185 0.16778,0.0317 0.25616,0.0317 h 3.54806 c 0.62185,0 1.12261,-0.50074 1.12261,-1.12258 v -0.36504 c 0.005,-0.0389 0.007,-0.0779 0.007,-0.11749 l 0.0116,-2.58275 c 3e-4,-0.0772 -0.007,-0.15271 -0.0185,-0.22687 v -19.88891 a 14.11731,14.11731 0 0 0 12.13134,-13.9596997 14.11731,14.11731 0 0 0 -14.11739,-14.11697 14.11731,14.11731 0 0 0 -14.11739,14.11697 14.11731,14.11731 0 0 0 10.31013,13.5924797 v 18.84078 l -30.92822,-0.19812 v -6.38698 c 0,-3.67498 -2.95857,-6.63356 -6.63355,-6.63356 h -3.464 V 1.2690193 A 14.11731,14.11731 0 0 0 213.0089,-12.543437 14.11731,14.11731 0 0 0 198.89149,-26.660408 Z m 0,6.493705 a 7.6234385,7.6234385 0 0 1 7.62371,7.623266 7.6234385,7.6234385 0 0 1 -7.62371,7.6236823 7.6234385,7.6234385 0 0 1 -7.62368,-7.6236823 7.6234385,7.6234385 0 0 1 7.62368,-7.623266 z m -64.9031,5.352836 a 7.6234385,7.6234385 0 0 1 7.62368,7.6232423 7.6234385,7.6234385 0 0 1 -7.62368,7.62370597 7.6234385,7.6234385 0 0 1 -7.62371,-7.62370597 7.6234385,7.6234385 0 0 1 7.62371,-7.6232423 z m 112.63257,12.9360133 a 7.6234385,7.6234385 0 0 1 7.62371,7.623264 7.6234385,7.6234385 0 0 1 -7.62371,7.6236797 7.6234385,7.6234385 0 0 1 -7.62368,-7.6236797 7.6234385,7.6234385 0 0 1 7.62368,-7.623264 z M 115.9753,9.0843873 a 7.6234385,7.6234385 0 0 1 7.62368,7.6232397 7.6234385,7.6234385 0 0 1 -7.62368,7.62369 7.6234385,7.6234385 0 0 1 -7.62371,-7.62369 7.6234385,7.6234385 0 0 1 7.62371,-7.6232397 z m 52.5726,23.2387297 h 30.906 c 2.98142,0 5.38159,2.40016 5.38159,5.3816 v 30.26955 c 0,2.9814 -2.40017,5.38157 -5.38159,5.38157 h -30.906 c -2.9814,0 -5.38157,-2.40017 -5.38157,-5.38157 v -30.26955 c 0,-2.98144 2.40017,-5.3816 5.38157,-5.3816 z m -53.27307,36.71013 a 7.6234385,7.6234385 0 0 1 7.62368,7.62326 7.6234385,7.6234385 0 0 1 -7.62368,7.62369 7.6234385,7.6234385 0 0 1 -7.6237,-7.62369 7.6234385,7.6234385 0 0 1 7.6237,-7.62326 z m 17.1471,28.33935 a 7.6234385,7.6234385 0 0 1 7.62371,7.623243 7.6234385,7.6234385 0 0 1 -7.62371,7.62371 7.6234385,7.6234385 0 0 1 -7.62371,-7.62371 7.6234385,7.6234385 0 0 1 7.62371,-7.623243 z m 105.22319,4.109593 a 7.6234385,7.6234385 0 0 1 7.62371,7.62327 7.6234385,7.6234385 0 0 1 -7.62371,7.62366 7.6234385,7.6234385 0 0 1 -7.62368,-7.62366 7.6234385,7.6234385 0 0 1 7.62368,-7.62327 z m -41.65568,11.24713 a 7.6234385,7.6234385 0 0 1 7.62371,7.62324 7.6234385,7.6234385 0 0 1 -7.62371,7.62371 7.6234385,7.6234385 0 0 1 -7.62368,-7.62371 7.6234385,7.6234385 0 0 1 7.62368,-7.62324 z"
       id="rect815"
       inkscape:connector-curvature="0" />
    <path
       style="opacity:1;fill:#aaafc8;fill-opacity:0.92941177;stroke:none;stroke-width:4.4609766;stroke-linecap:round;stroke-linejoin:round;stroke-miterlimit:14.39999962;stroke-dasharray:none;stroke-opacity:1;paint-order:fill markers stroke"
       d="m 77.806041,183.82749 a 14.11731,14.11731 0 0 0 -14.11739,14.11697 14.11731,14.11731 0 0 0 11.22099,13.80071 v 23.70264 h -23.02484 v -32.38662 c 0,-0.0403 -0.005,-0.0797 -0.005,-0.11934 l 10e-4,-0.23653 c 0.002,-0.6944 -0.55538,-1.25803 -1.24974,-1.26371 l -23.7768,-0.19511 a 14.11731,14.11731 0 0 0 -13.94965,-12.06611 14.11731,14.11731 0 0 0 -14.1174096,14.11695 14.11731,14.11731 0 0 0 14.1174096,14.11742 14.11731,14.11731 0 0 0 13.6112,-10.37808 l 19.57742,0.16058 v 28.25049 h -4.4167 c -3.67501,0 -6.63355,2.95855 -6.63355,6.63356 v 12.39845 l -37.4253896,-0.20091 v -13.23483 a 14.11731,14.11731 0 0 0 11.39657,-13.84863 14.11731,14.11731 0 0 0 -14.11741,-14.117 14.11731,14.11731 0 0 0 -14.1174004,14.117 14.11731,14.11731 0 0 0 11.0454504,13.76103 v 18.19692 c 0,0.49189 0.3959,0.8878 0.88777,0.8878 h 0.84384 c 0.0621,0.007 0.12513,0.0116 0.18909,0.0116 l 41.2976096,0.22084 v 24.3003 c 0,0.25828 0.0162,0.5124 0.0445,0.7628 l -26.9279696,-0.1555 a 14.11731,14.11731 0 0 0 -13.96317,-12.15276 14.11731,14.11731 0 0 0 -14.1174104,14.11697 14.11731,14.11731 0 0 0 14.1174104,14.11741 14.11731,14.11731 0 0 0 13.58638,-10.29009 l 33.1363396,0.19072 c 0.24872,0.028 0.50109,0.044 0.75755,0.044 h 4.19628 v 22.12008 l -20.62159,-0.17032 a 14.11731,14.11731 0 0 0 -13.90786,-11.78949 14.11731,14.11731 0 0 0 -14.1174096,14.11697 14.11731,14.11731 0 0 0 14.1174096,14.11738 14.11731,14.11731 0 0 0 13.67307,-10.65381 l 21.83999,0.18028 c 0.10081,0.025 0.20578,0.0396 0.31451,0.0396 h 3.19655 c 0.0927,0 0.18284,-0.0116 0.27008,-0.0283 0.58532,-0.0973 1.02962,-0.6006 1.03154,-1.2158 l 0.0116,-3.30414 c 1.8e-4,-0.06 -0.005,-0.11911 -0.0116,-0.17681 v -23.2357 h 20.51833 v 25.78666 a 14.11731,14.11731 0 0 0 -11.39089,13.84732 14.11731,14.11731 0 0 0 14.11739,14.11739 14.11731,14.11731 0 0 0 14.11741,-14.11739 14.11731,14.11731 0 0 0 -11.05067,-13.76193 v -25.87205 h 6.19053 c 3.67499,0 6.63353,-2.95852 6.63353,-6.63353 v -3.53937 l 22.921199,0.18167 v 24.55257 a 14.11731,14.11731 0 0 0 -11.27371,13.82553 14.11731,14.11731 0 0 0 14.11741,14.11742 14.11731,14.11731 0 0 0 14.11739,-14.11742 14.11731,14.11731 0 0 0 -11.16783,-13.78809 v -28.8721 c 0,-0.0315 -0.005,-0.0621 -0.005,-0.0931 l 5.3e-4,-0.0737 c 0.002,-0.71935 -0.57487,-1.30287 -1.29422,-1.30857 l -27.415959,-0.21736 v -20.97879 l 31.794649,0.20346 c 0.0825,0.0185 0.16778,0.0317 0.25616,0.0317 h 3.54806 c 0.62185,0 1.12261,-0.50074 1.12261,-1.12258 v -0.36504 c 0.005,-0.0389 0.007,-0.0779 0.007,-0.11749 l 0.0116,-2.58275 c 2.7e-4,-0.0772 -0.007,-0.15271 -0.0185,-0.22687 v -19.88891 a 14.11731,14.11731 0 0 0 12.13135,-13.9597 14.11731,14.11731 0 0 0 -14.11739,-14.11697 14.11731,14.11731 0 0 0 -14.11739,14.11697 14.11731,14.11731 0 0 0 10.31013,13.59248 v 18.84078 l -30.928219,-0.19812 v -6.38698 c 0,-3.67498 -2.95857,-6.63356 -6.63355,-6.63356 h -3.464 v -23.69201 a 14.11731,14.11731 0 0 0 11.2214,-13.81246 14.11731,14.11731 0 0 0 -14.11741,-14.11697 z m 0,6.4937 a 7.6234385,7.6234385 0 0 1 7.62371,7.62327 7.6234385,7.6234385 0 0 1 -7.62371,7.62368 7.6234385,7.6234385 0 0 1 -7.62368,-7.62368 7.6234385,7.6234385 0 0 1 7.62368,-7.62327 z m -64.9031,5.35284 a 7.6234385,7.6234385 0 0 1 7.62368,7.62324 7.6234385,7.6234385 0 0 1 -7.62368,7.62371 7.6234385,7.6234385 0 0 1 -7.6237096,-7.62371 7.6234385,7.6234385 0 0 1 7.6237096,-7.62324 z m 112.632569,12.93601 a 7.6234385,7.6234385 0 0 1 7.62371,7.62326 7.6234385,7.6234385 0 0 1 -7.62371,7.62369 7.6234385,7.6234385 0 0 1 -7.62368,-7.62369 7.6234385,7.6234385 0 0 1 7.62368,-7.62326 z M -5.1049386,219.57231 a 7.6234385,7.6234385 0 0 1 7.62368,7.62324 7.6234385,7.6234385 0 0 1 -7.62368,7.62369 7.6234385,7.6234385 0 0 1 -7.6237104,-7.62369 7.6234385,7.6234385 0 0 1 7.6237104,-7.62324 z m 52.5725996,23.23873 h 30.906 c 2.98142,0 5.38159,2.40016 5.38159,5.3816 v 30.26955 c 0,2.9814 -2.40017,5.38157 -5.38159,5.38157 h -30.906 c -2.9814,0 -5.38157,-2.40017 -5.38157,-5.38157 v -30.26955 c 0,-2.98144 2.40017,-5.3816 5.38157,-5.3816 z m -53.2730696,36.71013 a 7.6234385,7.6234385 0 0 1 7.62368,7.62326 7.6234385,7.6234385 0 0 1 -7.62368,7.62369 7.6234385,7.6234385 0 0 1 -7.6237004,-7.62369 7.6234385,7.6234385 0 0 1 7.6237004,-7.62326 z m 17.1470996,28.33935 a 7.6234385,7.6234385 0 0 1 7.62371,7.62324 7.6234385,7.6234385 0 0 1 -7.62371,7.6237 7.6234385,7.6234385 0 0 1 -7.6237096,-7.6237 7.6234385,7.6234385 0 0 1 7.6237096,-7.62324 z m 105.223189,4.10959 a 7.6234385,7.6234385 0 0 1 7.62371,7.62326 7.6234385,7.6234385 0 0 1 -7.62371,7.62366 7.6234385,7.6234385 0 0 1 -7.62368,-7.62366 7.6234385,7.6234385 0 0 1 7.62368,-7.62326 z m -41.655679,11.24712 a 7.6234385,7.6234385 0 0 1 7.62371,7.62324 7.6234385,7.6234385 0 0 1 -7.62371,7.62371 7.6234385,7.6234385 0 0 1 -7.62368,-7.62371 7.6234385,7.6234385 0 0 1 7.62368,-7.62324 z"
       id="rect815-4"
       inkscape:connector-curvature="0" />
  </g>
</svg>
