<?xml version="1.0" encoding="UTF-8" standalone="no"?>
<!-- Created with Inkscape (http://www.inkscape.org/) -->

<svg
   xmlns:dc="http://purl.org/dc/elements/1.1/"
   xmlns:cc="http://creativecommons.org/ns#"
   xmlns:rdf="http://www.w3.org/1999/02/22-rdf-syntax-ns#"
   xmlns:svg="http://www.w3.org/2000/svg"
   xmlns="http://www.w3.org/2000/svg"
   xmlns:sodipodi="http://sodipodi.sourceforge.net/DTD/sodipodi-0.dtd"
   xmlns:inkscape="http://www.inkscape.org/namespaces/inkscape"
   width="240mm"
   height="95mm"
   viewBox="0 0 240 95"
   version="1.1"
   id="svg8"
   inkscape:version="0.92.4 (5da689c313, 2019-01-14)"
   sodipodi:docname="logotype3.svg">
  <defs
     id="defs2" />
  <sodipodi:namedview
     id="base"
     pagecolor="#ffffff"
     bordercolor="#666666"
     borderopacity="1.0"
     inkscape:pageopacity="0.0"
     inkscape:pageshadow="2"
     inkscape:zoom="0.98994949"
     inkscape:cx="281.86936"
     inkscape:cy="145.40399"
     inkscape:document-units="mm"
     inkscape:current-layer="layer1"
     showgrid="false"
     width="240mm"
     inkscape:window-width="1920"
     inkscape:window-height="1017"
     inkscape:window-x="-8"
     inkscape:window-y="-8"
     inkscape:window-maximized="1" />
  <metadata
     id="metadata5">
    <rdf:RDF>
      <cc:Work
         rdf:about="">
        <dc:format>image/svg+xml</dc:format>
        <dc:type
           rdf:resource="http://purl.org/dc/dcmitype/StillImage" />
        <dc:title />
      </cc:Work>
    </rdf:RDF>
  </metadata>
  <g
     inkscape:label="Layer 1"
     inkscape:groupmode="layer"
     id="layer1"
     transform="translate(0,-202)">
    <path
       style="opacity:1;fill:#818da6;fill-opacity:1;stroke:none;stroke-width:1.92508745;stroke-linecap:round;stroke-linejoin:round;stroke-miterlimit:14.39999962;stroke-dasharray:none;stroke-opacity:1;paint-order:fill markers stroke"
       d="m 61.730637,214.55226 a 6.0921765,6.0921765 0 0 0 -6.092217,6.09203 6.0921765,6.0921765 0 0 0 4.842305,5.95555 v 10.22863 h -9.936134 v -13.97611 c 0,-0.0174 -0.0016,-0.0344 -0.0023,-0.0515 l 4.02e-4,-0.10207 c 8.35e-4,-0.29966 -0.239683,-0.54289 -0.539329,-0.54534 l -10.260785,-0.0842 a 6.0921765,6.0921765 0 0 0 -6.019876,-5.207 6.0921765,6.0921765 0 0 0 -6.092217,6.09202 6.0921765,6.0921765 0 0 0 6.092217,6.09222 6.0921765,6.0921765 0 0 0 5.873777,-4.47855 l 8.448418,0.0693 v 12.1912 h -1.905976 c -1.585907,0 -2.862635,1.27673 -2.862635,2.86264 v 5.35042 l -16.150529,-0.0867 v -5.71135 a 6.0921765,6.0921765 0 0 0 4.918065,-5.97623 6.0921765,6.0921765 0 0 0 -6.092216,-6.09204 6.0921765,6.0921765 0 0 0 -6.092216,6.09204 6.0921765,6.0921765 0 0 0 4.766546,5.93843 v 7.8527 c 0,0.21227 0.170847,0.38311 0.383113,0.38311 h 0.364149 c 0.02685,0.003 0.05401,0.005 0.08159,0.005 l 17.821542,0.0953 v 10.48655 c 0,0.11145 0.0068,0.22112 0.01918,0.32917 l -11.620469,-0.0671 a 6.0921765,6.0921765 0 0 0 -6.025666,-5.24439 6.0921765,6.0921765 0 0 0 -6.092217,6.09202 6.0921765,6.0921765 0 0 0 6.092217,6.09222 6.0921765,6.0921765 0 0 0 5.863065,-4.44058 l 14.299635,0.0823 c 0.107331,0.0121 0.216241,0.019 0.326908,0.019 h 1.810859 v 9.54568 l -8.899022,-0.0735 a 6.0921765,6.0921765 0 0 0 -6.001795,-5.08763 6.0921765,6.0921765 0 0 0 -6.092216,6.09203 6.0921765,6.0921765 0 0 0 6.092216,6.09222 6.0921765,6.0921765 0 0 0 5.900472,-4.59755 l 9.424815,0.0778 c 0.04354,0.0108 0.08878,0.0171 0.135724,0.0171 h 1.379432 c 0.04005,0 0.07894,-0.005 0.116555,-0.0122 0.252592,-0.042 0.444316,-0.25919 0.445151,-0.52467 l 0.0046,-1.42587 c 7.6e-5,-0.0259 -0.0023,-0.0514 -0.0053,-0.0763 v -10.02712 h 8.854465 v 11.12796 a 6.0921765,6.0921765 0 0 0 -4.915619,5.97567 6.0921765,6.0921765 0 0 0 6.092214,6.09221 6.0921765,6.0921765 0 0 0 6.092218,-6.09221 6.0921765,6.0921765 0 0 0 -4.768802,-5.93882 v -11.16481 h 2.67146 c 1.5859,0 2.862634,-1.27672 2.862634,-2.86263 v -1.52738 l 9.891394,0.0784 v 10.5954 a 6.0921765,6.0921765 0 0 0 -4.865049,5.96627 6.0921765,6.0921765 0 0 0 6.092218,6.09221 6.0921765,6.0921765 0 0 0 6.092218,-6.09221 6.0921765,6.0921765 0 0 0 -4.819368,-5.95011 v -12.45945 c 0,-0.0136 -0.0016,-0.0268 -0.0023,-0.0402 l 1.9e-4,-0.0318 c 8.34e-4,-0.31043 -0.248078,-0.56224 -0.558505,-0.5647 l -11.831028,-0.0938 v -9.05318 l 13.720649,0.0878 c 0.03558,0.008 0.07237,0.0137 0.110539,0.0137 h 1.531132 c 0.268348,0 0.484444,-0.21609 0.484444,-0.48444 v -0.15753 c 0.0016,-0.0168 0.003,-0.0336 0.003,-0.0507 l 0.0046,-1.11456 c 1.36e-4,-0.0333 -0.003,-0.0659 -0.0076,-0.0979 v -8.58285 a 6.0921765,6.0921765 0 0 0 5.235156,-6.02416 6.0921765,6.0921765 0 0 0 -6.092211,-6.09203 6.0921765,6.0921765 0 0 0 -6.092215,6.09203 6.0921765,6.0921765 0 0 0 4.449233,5.86569 v 8.13054 l -13.346753,-0.0855 v -2.75623 c 0,-1.5859 -1.276736,-2.86264 -2.862637,-2.86264 h -1.494884 v -10.22406 a 6.0921765,6.0921765 0 0 0 4.842301,-5.96062 6.0921765,6.0921765 0 0 0 -6.092218,-6.09203 z m 0,2.80229 a 3.2898145,3.2898145 0 0 1 3.289927,3.28974 3.2898145,3.2898145 0 0 1 -3.289927,3.28992 3.2898145,3.2898145 0 0 1 -3.289922,-3.28992 3.2898145,3.2898145 0 0 1 3.289922,-3.28974 z m -28.008251,2.30996 a 3.2898145,3.2898145 0 0 1 3.28992,3.28973 3.2898145,3.2898145 0 0 1 -3.28992,3.28993 3.2898145,3.2898145 0 0 1 -3.289928,-3.28993 3.2898145,3.2898145 0 0 1 3.289928,-3.28973 z m 48.605395,5.5824 a 3.2898145,3.2898145 0 0 1 3.289927,3.28974 3.2898145,3.2898145 0 0 1 -3.289927,3.28992 3.2898145,3.2898145 0 0 1 -3.28992,-3.28992 3.2898145,3.2898145 0 0 1 3.28992,-3.28974 z m -56.376506,4.73065 a 3.2898145,3.2898145 0 0 1 3.289926,3.28973 3.2898145,3.2898145 0 0 1 -3.289926,3.28992 3.2898145,3.2898145 0 0 1 -3.289928,-3.28992 3.2898145,3.2898145 0 0 1 3.289928,-3.28973 z m 22.687151,10.02843 h 13.337156 c 1.286602,0 2.322367,1.03576 2.322367,2.32237 v 13.06251 c 0,1.28659 -1.035765,2.32236 -2.322367,2.32236 H 48.638426 c -1.286596,0 -2.322366,-1.03577 -2.322366,-2.32236 v -13.06251 c 0,-1.28661 1.03577,-2.32237 2.322366,-2.32237 z m -22.98943,15.84187 a 3.2898145,3.2898145 0 0 1 3.289919,3.28974 3.2898145,3.2898145 0 0 1 -3.289919,3.28992 3.2898145,3.2898145 0 0 1 -3.289927,-3.28992 3.2898145,3.2898145 0 0 1 3.289927,-3.28974 z m 7.39965,12.22955 a 3.2898145,3.2898145 0 0 1 3.289927,3.28973 3.2898145,3.2898145 0 0 1 -3.289927,3.28993 3.2898145,3.2898145 0 0 1 -3.289927,-3.28993 3.2898145,3.2898145 0 0 1 3.289927,-3.28973 z m 45.407961,1.77345 a 3.2898145,3.2898145 0 0 1 3.289927,3.28974 3.2898145,3.2898145 0 0 1 -3.289927,3.28991 3.2898145,3.2898145 0 0 1 -3.289927,-3.28991 3.2898145,3.2898145 0 0 1 3.289927,-3.28974 z m -17.976072,4.85358 a 3.2898145,3.2898145 0 0 1 3.289927,3.28973 3.2898145,3.2898145 0 0 1 -3.289927,3.28993 3.2898145,3.2898145 0 0 1 -3.28992,-3.28993 3.2898145,3.2898145 0 0 1 3.28992,-3.28973 z"
       id="rect815"
       inkscape:connector-curvature="0" />
    <text
       xml:space="preserve"
       style="font-style:normal;font-weight:normal;font-size:10.58333302px;line-height:1.25;font-family:sans-serif;letter-spacing:0px;word-spacing:0px;fill:#818da6;fill-opacity:1;stroke:none;stroke-width:0.26458332;"
       x="157.02596"
       y="266.39877"
       id="text833"><tspan
         sodipodi:role="line"
         id="tspan831"
         x="157.02596"
         y="266.39877"
         style="font-style:italic;font-variant:normal;font-weight:normal;font-stretch:normal;font-size:50.79999924px;font-family:'Franklin Gothic Heavy';-inkscape-font-specification:'Franklin Gothic Heavy, Italic';text-align:center;writing-mode:lr-tb;text-anchor:middle;fill:#818da6;fill-opacity:1;stroke-width:0.26458332;">CSSS</tspan></text>
  </g>
</svg>
