<?xml version="1.0" encoding="UTF-8" standalone="no"?>
<!-- Created with Inkscape (http://www.inkscape.org/) -->

<svg
   xmlns:dc="http://purl.org/dc/elements/1.1/"
   xmlns:cc="http://creativecommons.org/ns#"
   xmlns:rdf="http://www.w3.org/1999/02/22-rdf-syntax-ns#"
   xmlns:svg="http://www.w3.org/2000/svg"
   xmlns="http://www.w3.org/2000/svg"
   xmlns:sodipodi="http://sodipodi.sourceforge.net/DTD/sodipodi-0.dtd"
   xmlns:inkscape="http://www.inkscape.org/namespaces/inkscape"
   width="240mm"
   height="95mm"
   viewBox="0 0 240 95"
   version="1.1"
   id="svg8"
   inkscape:version="0.92.4 (5da689c313, 2019-01-14)"
   sodipodi:docname="logotype2.svg">
  <defs
     id="defs2" />
  <sodipodi:namedview
     id="base"
     pagecolor="#ffffff"
     bordercolor="#666666"
     borderopacity="1.0"
     inkscape:pageopacity="0.0"
     inkscape:pageshadow="2"
     inkscape:zoom="0.98994949"
     inkscape:cx="565.84816"
     inkscape:cy="145.40399"
     inkscape:document-units="mm"
     inkscape:current-layer="layer1"
     showgrid="false"
     width="240mm"
     inkscape:window-width="1920"
     inkscape:window-height="1017"
     inkscape:window-x="-8"
     inkscape:window-y="-8"
     inkscape:window-maximized="1" />
  <metadata
     id="metadata5">
    <rdf:RDF>
      <cc:Work
         rdf:about="">
        <dc:format>image/svg+xml</dc:format>
        <dc:type
           rdf:resource="http://purl.org/dc/dcmitype/StillImage" />
        <dc:title />
      </cc:Work>
    </rdf:RDF>
  </metadata>
  <g
     inkscape:label="Layer 1"
     inkscape:groupmode="layer"
     id="layer1"
     transform="translate(0,-202)">
    <path
       style="opacity:1;fill:#f2bb16;fill-opacity:1;stroke:none;stroke-width:2.5377543;stroke-linecap:round;stroke-linejoin:round;stroke-miterlimit:14.39999962;stroke-dasharray:none;stroke-opacity:1;paint-order:fill markers stroke"
       d="m 57.779998,203.32694 a 8.0310363,8.0310363 0 0 0 -8.031089,8.03084 8.0310363,8.0310363 0 0 0 6.383388,7.85093 v 13.48394 H 43.033948 v -18.42407 c 0,-0.0229 -0.0021,-0.0454 -0.003,-0.0679 l 5.3e-4,-0.13456 c 0.0011,-0.39502 -0.315963,-0.71566 -0.710973,-0.7189 L 28.794184,213.2362 a 8.0310363,8.0310363 0 0 0 -7.935726,-6.86415 8.0310363,8.0310363 0 0 0 -8.03109,8.03084 8.0310363,8.0310363 0 0 0 8.03109,8.03109 8.0310363,8.0310363 0 0 0 7.74313,-5.90387 l 11.137161,0.0914 v 16.07109 h -2.51256 c -2.090629,0 -3.773681,1.68306 -3.773681,3.77369 v 7.05322 l -21.2905,-0.11424 v -7.52902 a 8.0310363,8.0310363 0 0 0 6.48326,-7.87819 8.0310363,8.0310363 0 0 0 -8.031089,-8.03085 8.0310363,8.0310363 0 0 0 -8.0310893,8.03085 8.0310363,8.0310363 0 0 0 6.283519,7.82837 v 10.35185 c 0,0.27982 0.22522,0.50504 0.50504,0.50504 h 0.48001 c 0.0354,0.004 0.0712,0.006 0.10755,0.006 l 23.4933193,0.12564 v 13.82393 c 0,0.14692 0.009,0.29149 0.02529,0.43393 l -15.31873,-0.0885 a 8.0310363,8.0310363 0 0 0 -7.943359,-6.91345 8.0310363,8.0310363 0 0 0 -8.0310903,8.03084 8.0310363,8.0310363 0 0 0 8.0310903,8.03109 8.0310363,8.0310363 0 0 0 7.729009,-5.85382 l 18.850552,0.10854 c 0.141489,0.016 0.28506,0.025 0.430948,0.025 h 2.387172 v 12.58364 l -11.731172,-0.0969 a 8.0310363,8.0310363 0 0 0 -7.91189,-6.70678 8.0310363,8.0310363 0 0 0 -8.031089,8.03084 8.0310363,8.0310363 0 0 0 8.031089,8.03109 8.0310363,8.0310363 0 0 0 7.77832,-6.06074 l 12.424301,0.1026 c 0.0574,0.0142 0.11703,0.0226 0.178919,0.0226 h 1.818442 c 0.0528,0 0.104068,-0.006 0.153649,-0.0161 0.33298,-0.0554 0.585721,-0.34167 0.586822,-0.69164 l 0.006,-1.87966 c 1e-4,-0.0342 -0.003,-0.0677 -0.007,-0.10061 v -13.21829 h 11.672435 v 14.66948 a 8.0310363,8.0310363 0 0 0 -6.480035,7.87744 8.0310363,8.0310363 0 0 0 8.031086,8.03109 8.0310363,8.0310363 0 0 0 8.031091,-8.03109 8.0310363,8.0310363 0 0 0 -6.286492,-7.82887 v -14.71805 h 3.521663 c 2.090618,0 3.773678,-1.68305 3.773678,-3.77368 v -2.01347 l 13.03937,0.10334 v 13.96742 a 8.0310363,8.0310363 0 0 0 -6.41337,7.86506 8.0310363,8.0310363 0 0 0 8.031091,8.03109 8.0310363,8.0310363 0 0 0 8.031091,-8.03109 8.0310363,8.0310363 0 0 0 -6.353151,-7.84375 v -16.42472 c 0,-0.0179 -0.0021,-0.0354 -0.003,-0.053 l 2.51e-4,-0.0419 c 0.0011,-0.40923 -0.32703,-0.74118 -0.736251,-0.74442 l -15.596301,-0.12366 v -11.93438 l 18.087301,0.11573 c 0.0469,0.0109 0.0954,0.0181 0.145719,0.0181 h 2.018421 c 0.353751,0 0.63862,-0.28486 0.63862,-0.63861 v -0.20766 c 0.0021,-0.0222 0.004,-0.0443 0.004,-0.0669 l 0.006,-1.46928 c 1.8e-4,-0.0439 -0.004,-0.0868 -0.01,-0.12911 v -11.31437 a 8.0310363,8.0310363 0 0 0 6.901265,-7.94138 8.0310363,8.0310363 0 0 0 -8.031081,-8.03084 8.0310363,8.0310363 0 0 0 -8.031088,8.03084 8.0310363,8.0310363 0 0 0 5.86522,7.73247 v 10.71812 l -17.594411,-0.11276 v -3.63341 c 0,-2.09063 -1.683062,-3.77369 -3.773683,-3.77369 h -1.970599 v -13.47725 a 8.0310363,8.0310363 0 0 0 6.383383,-7.85762 8.0310363,8.0310363 0 0 0 -8.031091,-8.03084 z m 0,3.69413 a 4.3368113,4.3368113 0 0 1 4.33696,4.33671 4.3368113,4.3368113 0 0 1 -4.33696,4.33696 4.3368113,4.3368113 0 0 1 -4.336953,-4.33696 4.3368113,4.3368113 0 0 1 4.336953,-4.33671 z m -36.92199,3.04512 a 4.3368113,4.3368113 0 0 1 4.33695,4.3367 4.3368113,4.3368113 0 0 1 -4.33695,4.33696 4.3368113,4.3368113 0 0 1 -4.33696,-4.33696 4.3368113,4.3368113 0 0 1 4.33696,-4.3367 z m 64.074259,7.35902 a 4.3368113,4.3368113 0 0 1 4.33696,4.33671 4.3368113,4.3368113 0 0 1 -4.33696,4.33695 4.3368113,4.3368113 0 0 1 -4.33695,-4.33695 4.3368113,4.3368113 0 0 1 4.33695,-4.33671 z m -74.318558,6.23619 a 4.3368113,4.3368113 0 0 1 4.336959,4.33671 4.3368113,4.3368113 0 0 1 -4.336959,4.33695 4.3368113,4.3368113 0 0 1 -4.3369603,-4.33695 4.3368113,4.3368113 0 0 1 4.3369603,-4.33671 z m 29.90743,13.22002 h 17.581759 c 1.696069,0 3.06147,1.3654 3.06147,3.06147 v 17.21971 c 0,1.69606 -1.365401,3.06147 -3.06147,3.06147 H 40.521139 c -1.696061,0 -3.061469,-1.36541 -3.061469,-3.06147 v -17.21971 c 0,-1.69607 1.365408,-3.06147 3.061469,-3.06147 z m -30.30591,20.88361 a 4.3368113,4.3368113 0 0 1 4.336949,4.33671 4.3368113,4.3368113 0 0 1 -4.336949,4.33695 4.3368113,4.3368113 0 0 1 -4.3369603,-4.33695 4.3368113,4.3368113 0 0 1 4.3369603,-4.33671 z m 9.754619,16.12165 a 4.3368113,4.3368113 0 0 1 4.33696,4.33671 4.3368113,4.3368113 0 0 1 -4.33696,4.33696 4.3368113,4.3368113 0 0 1 -4.33696,-4.33696 4.3368113,4.3368113 0 0 1 4.33696,-4.33671 z m 59.859228,2.33786 a 4.3368113,4.3368113 0 0 1 4.33696,4.33671 4.3368113,4.3368113 0 0 1 -4.33696,4.33695 4.3368113,4.3368113 0 0 1 -4.33696,-4.33695 4.3368113,4.3368113 0 0 1 4.33696,-4.33671 z m -23.69703,6.39826 a 4.3368113,4.3368113 0 0 1 4.33696,4.3367 4.3368113,4.3368113 0 0 1 -4.33696,4.33696 4.3368113,4.3368113 0 0 1 -4.33695,-4.33696 4.3368113,4.3368113 0 0 1 4.33695,-4.3367 z"
       id="rect815"
       inkscape:connector-curvature="0" />
    <text
       xml:space="preserve"
       style="font-style:normal;font-weight:normal;font-size:10.58333302px;line-height:1.25;font-family:sans-serif;letter-spacing:0px;word-spacing:0px;fill:#f2bb16;fill-opacity:1;stroke:none;stroke-width:0.26458332;"
       x="159.69865"
       y="259.1825"
       id="text833"><tspan
         sodipodi:role="line"
         id="tspan831"
         x="159.69865"
         y="259.1825"
         style="font-style:italic;font-variant:normal;font-weight:normal;font-stretch:normal;font-size:50.79999924px;font-family:'Franklin Gothic Heavy';-inkscape-font-specification:'Franklin Gothic Heavy, Italic';text-align:center;writing-mode:lr-tb;text-anchor:middle;fill:#f2bb16;stroke-width:0.26458332;fill-opacity:1;">CSSS</tspan></text>
    <text
       xml:space="preserve"
       style="font-style:normal;font-weight:normal;font-size:10.58333302px;line-height:1.25;font-family:sans-serif;letter-spacing:0px;word-spacing:0px;fill:#f2bb16;fill-opacity:1;stroke:none;stroke-width:0.26458332;"
       x="99.401192"
       y="275.96161"
       id="text837"><tspan
         sodipodi:role="line"
         id="tspan835"
         x="99.401192"
         y="275.96161"
         style="font-style:italic;font-variant:normal;font-weight:normal;font-stretch:normal;font-size:9.87777805px;line-height:0;font-family:Rubik;-inkscape-font-specification:'Rubik Italic';fill:#f2bb16;stroke-width:0.26458332;fill-opacity:1;">Class Student Service System</tspan></text>
  </g>
</svg>
