<?xml version="1.0" encoding="UTF-8" standalone="no"?>
<!-- Created with Inkscape (http://www.inkscape.org/) -->

<svg
   xmlns:osb="http://www.openswatchbook.org/uri/2009/osb"
   xmlns:dc="http://purl.org/dc/elements/1.1/"
   xmlns:cc="http://creativecommons.org/ns#"
   xmlns:rdf="http://www.w3.org/1999/02/22-rdf-syntax-ns#"
   xmlns:svg="http://www.w3.org/2000/svg"
   xmlns="http://www.w3.org/2000/svg"
   xmlns:sodipodi="http://sodipodi.sourceforge.net/DTD/sodipodi-0.dtd"
   xmlns:inkscape="http://www.inkscape.org/namespaces/inkscape"
   width="297mm"
   height="210mm"
   viewBox="0 0 297 210"
   version="1.1"
   id="svg8"
   inkscape:version="0.92.4 (5da689c313, 2019-01-14)"
   sodipodi:docname="logotype.svg">
  <defs
     id="defs2">
    <linearGradient
       id="linearGradient819"
       osb:paint="solid">
      <stop
         style="stop-color:#ff6600;stop-opacity:1;"
         offset="0"
         id="stop817" />
    </linearGradient>
  </defs>
  <sodipodi:namedview
     id="base"
     pagecolor="#ffffff"
     bordercolor="#666666"
     borderopacity="1.0"
     inkscape:pageopacity="0.0"
     inkscape:pageshadow="2"
     inkscape:zoom="0.70710678"
     inkscape:cx="474.07543"
     inkscape:cy="349.54488"
     inkscape:document-units="mm"
     inkscape:current-layer="layer1"
     showgrid="false"
     inkscape:window-width="1920"
     inkscape:window-height="1017"
     inkscape:window-x="-8"
     inkscape:window-y="-8"
     inkscape:window-maximized="1" />
  <metadata
     id="metadata5">
    <rdf:RDF>
      <cc:Work
         rdf:about="">
        <dc:format>image/svg+xml</dc:format>
        <dc:type
           rdf:resource="http://purl.org/dc/dcmitype/StillImage" />
        <dc:title />
      </cc:Work>
    </rdf:RDF>
  </metadata>
  <g
     inkscape:label="Layer 1"
     inkscape:groupmode="layer"
     id="layer1"
     transform="translate(0,-87)">
    <path
       style="opacity:1;fill:#000000;fill-opacity:1;stroke:none;stroke-width:2.5377543;stroke-linecap:round;stroke-linejoin:round;stroke-miterlimit:14.39999962;stroke-dasharray:none;stroke-opacity:1;paint-order:fill markers stroke"
       d="m 88.966708,143.16882 a 8.0310362,8.0310362 0 0 0 -8.031087,8.03084 8.0310362,8.0310362 0 0 0 6.383387,7.85093 v 13.48394 H 74.220661 v -18.42407 c 0,-0.0229 -0.002,-0.0454 -0.003,-0.0679 l 5e-4,-0.13456 c 0.001,-0.39502 -0.31596,-0.71566 -0.71097,-0.7189 l -13.52632,-0.11102 a 8.0310362,8.0310362 0 0 0 -7.93568,-6.86415 8.0310362,8.0310362 0 0 0 -8.03109,8.03084 8.0310362,8.0310362 0 0 0 8.03109,8.03109 8.0310362,8.0310362 0 0 0 7.74313,-5.90387 l 11.13716,0.0914 v 16.07109 h -2.51256 c -2.09063,0 -3.77368,1.68306 -3.77368,3.77369 v 7.05322 l -21.29052,-0.11424 v -7.52902 a 8.0310362,8.0310362 0 0 0 6.48326,-7.87819 8.0310362,8.0310362 0 0 0 -8.03109,-8.03085 8.0310362,8.0310362 0 0 0 -8.031089,8.03085 8.0310362,8.0310362 0 0 0 6.283519,7.82837 v 10.35185 c 0,0.27982 0.22522,0.50504 0.50504,0.50504 h 0.48001 c 0.0354,0.004 0.0712,0.006 0.10755,0.006 l 23.49332,0.12564 v 13.82394 c 0,0.14691 0.009,0.29148 0.0253,0.43392 l -15.31874,-0.0885 a 8.0310362,8.0310362 0 0 0 -7.94336,-6.91345 8.0310362,8.0310362 0 0 0 -8.03109,8.03084 8.0310362,8.0310362 0 0 0 8.03109,8.03109 8.0310362,8.0310362 0 0 0 7.72901,-5.85382 l 18.85055,0.10854 c 0.14149,0.016 0.28506,0.025 0.43095,0.025 h 2.38717 v 12.58364 l -11.73117,-0.0969 a 8.0310362,8.0310362 0 0 0 -7.91189,-6.70678 8.0310362,8.0310362 0 0 0 -8.03109,8.03084 8.0310362,8.0310362 0 0 0 8.03109,8.03109 8.0310362,8.0310362 0 0 0 7.77832,-6.06074 l 12.4243,0.1026 c 0.0574,0.0142 0.11703,0.0226 0.17892,0.0226 h 1.81844 c 0.0528,0 0.10407,-0.006 0.15365,-0.0161 0.33298,-0.0554 0.58572,-0.34167 0.58682,-0.69164 l 0.006,-1.87966 c 1e-4,-0.0342 -0.003,-0.0677 -0.007,-0.10061 v -13.21829 h 11.672437 v 14.66948 a 8.0310362,8.0310362 0 0 0 -6.480037,7.87744 8.0310362,8.0310362 0 0 0 8.031087,8.03109 8.0310362,8.0310362 0 0 0 8.03109,-8.03109 8.0310362,8.0310362 0 0 0 -6.28649,-7.82887 v -14.71805 h 3.52166 c 2.09062,0 3.77368,-1.68305 3.77368,-3.77368 v -2.01347 l 13.039362,0.10334 v 13.96742 a 8.0310362,8.0310362 0 0 0 -6.41337,7.86506 8.0310362,8.0310362 0 0 0 8.03109,8.03109 8.0310362,8.0310362 0 0 0 8.03109,-8.03109 8.0310362,8.0310362 0 0 0 -6.35315,-7.84375 v -16.42472 c 0,-0.0179 -0.002,-0.0354 -0.003,-0.053 l 2.5e-4,-0.0419 c 10e-4,-0.40923 -0.32703,-0.74118 -0.73625,-0.74442 l -15.596292,-0.12366 v -11.93438 l 18.087292,0.11573 c 0.0469,0.0109 0.0954,0.0181 0.14572,0.0181 h 2.01842 c 0.35375,0 0.63862,-0.28486 0.63862,-0.63861 v -0.20766 c 0.002,-0.0222 0.004,-0.0443 0.004,-0.0669 l 0.006,-1.46928 c 1.8e-4,-0.0439 -0.004,-0.0868 -0.01,-0.12911 v -11.31435 a 8.0310362,8.0310362 0 0 0 6.90131,-7.94138 8.0310362,8.0310362 0 0 0 -8.03109,-8.03084 8.0310362,8.0310362 0 0 0 -8.03109,8.03084 8.0310362,8.0310362 0 0 0 5.86522,7.73247 v 10.71812 l -17.594402,-0.11276 v -3.63341 c 0,-2.09063 -1.68306,-3.77369 -3.77368,-3.77369 h -1.9706 v -13.47725 a 8.0310362,8.0310362 0 0 0 6.38338,-7.85762 8.0310362,8.0310362 0 0 0 -8.03109,-8.03084 z m 0,3.69413 a 4.3368114,4.3368114 0 0 1 4.33696,4.33671 4.3368114,4.3368114 0 0 1 -4.33696,4.33696 4.3368114,4.3368114 0 0 1 -4.33695,-4.33696 4.3368114,4.3368114 0 0 1 4.33695,-4.33671 z m -36.921987,3.04512 a 4.3368114,4.3368114 0 0 1 4.33695,4.3367 4.3368114,4.3368114 0 0 1 -4.33695,4.33696 4.3368114,4.3368114 0 0 1 -4.33696,-4.33696 4.3368114,4.3368114 0 0 1 4.33696,-4.3367 z m 64.074249,7.35902 a 4.3368114,4.3368114 0 0 1 4.33696,4.33671 4.3368114,4.3368114 0 0 1 -4.33696,4.33695 4.3368114,4.3368114 0 0 1 -4.33695,-4.33695 4.3368114,4.3368114 0 0 1 4.33695,-4.33671 z m -74.318549,6.23619 a 4.3368114,4.3368114 0 0 1 4.33696,4.33671 4.3368114,4.3368114 0 0 1 -4.33696,4.33695 4.3368114,4.3368114 0 0 1 -4.33696,-4.33695 4.3368114,4.3368114 0 0 1 4.33696,-4.33671 z m 29.90743,13.22002 h 17.581757 c 1.69607,0 3.06147,1.3654 3.06147,3.06147 v 17.21971 c 0,1.69606 -1.3654,3.06147 -3.06147,3.06147 H 71.707851 c -1.69606,0 -3.06147,-1.36541 -3.06147,-3.06147 v -17.21971 c 0,-1.69607 1.36541,-3.06147 3.06147,-3.06147 z m -30.30591,20.88361 a 4.3368114,4.3368114 0 0 1 4.33695,4.33671 4.3368114,4.3368114 0 0 1 -4.33695,4.33695 4.3368114,4.3368114 0 0 1 -4.33696,-4.33695 4.3368114,4.3368114 0 0 1 4.33696,-4.33671 z m 9.75462,16.12165 a 4.3368114,4.3368114 0 0 1 4.33696,4.33671 4.3368114,4.3368114 0 0 1 -4.33696,4.33696 4.3368114,4.3368114 0 0 1 -4.33696,-4.33696 4.3368114,4.3368114 0 0 1 4.33696,-4.33671 z m 59.859219,2.33786 a 4.3368114,4.3368114 0 0 1 4.33696,4.33671 4.3368114,4.3368114 0 0 1 -4.33696,4.33695 4.3368114,4.3368114 0 0 1 -4.33696,-4.33695 4.3368114,4.3368114 0 0 1 4.33696,-4.33671 z m -23.697022,6.39826 a 4.3368114,4.3368114 0 0 1 4.33696,4.3367 4.3368114,4.3368114 0 0 1 -4.33696,4.33696 4.3368114,4.3368114 0 0 1 -4.33695,-4.33696 4.3368114,4.3368114 0 0 1 4.33695,-4.3367 z"
       id="rect815"
       inkscape:connector-curvature="0" />
    <flowRoot
       xml:space="preserve"
       id="flowRoot815"
       style="fill:black;fill-opacity:1;stroke:none;font-family:sans-serif;font-style:normal;font-weight:normal;font-size:40px;line-height:1.25;letter-spacing:0px;word-spacing:0px"><flowRegion
         id="flowRegion817"><rect
           id="rect819"
           width="394"
           height="224"
           x="538"
           y="243.70079" /></flowRegion><flowPara
         id="flowPara821" /></flowRoot>    <flowRoot
       xml:space="preserve"
       id="flowRoot823"
       style="fill:black;fill-opacity:1;stroke:none;font-family:sans-serif;font-style:normal;font-weight:normal;font-size:40px;line-height:1.25;letter-spacing:0px;word-spacing:0px"><flowRegion
         id="flowRegion825"><rect
           id="rect827"
           width="318"
           height="212"
           x="586"
           y="241.70079" /></flowRegion><flowPara
         id="flowPara829" /></flowRoot>    <text
       xml:space="preserve"
       style="font-style:normal;font-weight:normal;font-size:10.58333302px;line-height:1.25;font-family:sans-serif;letter-spacing:0px;word-spacing:0px;fill:#000000;fill-opacity:1;stroke:none;stroke-width:0.26458332;"
       x="190.88535"
       y="199.02438"
       id="text833"><tspan
         sodipodi:role="line"
         id="tspan831"
         x="190.88535"
         y="199.02438"
         style="font-style:italic;font-variant:normal;font-weight:normal;font-stretch:normal;font-size:50.79999924px;font-family:'Franklin Gothic Heavy';-inkscape-font-specification:'Franklin Gothic Heavy, Italic';text-align:center;writing-mode:lr-tb;text-anchor:middle;fill:#000000;stroke-width:0.26458332;">CSSS</tspan></text>
    <text
       xml:space="preserve"
       style="font-style:normal;font-weight:normal;font-size:10.58333302px;line-height:1.25;font-family:sans-serif;letter-spacing:0px;word-spacing:0px;fill:#000000;fill-opacity:1;stroke:none;stroke-width:0.26458332;"
       x="130.58789"
       y="215.80351"
       id="text837"><tspan
         sodipodi:role="line"
         id="tspan835"
         x="130.58789"
         y="215.80351"
         style="font-style:italic;font-variant:normal;font-weight:normal;font-stretch:normal;font-size:9.87777805px;line-height:0;font-family:Rubik;-inkscape-font-specification:'Rubik Italic';fill:#000000;stroke-width:0.26458332;">Class Student Service System</tspan></text>
  </g>
</svg>
