<?xml version="1.0" encoding="UTF-8" standalone="no"?>
<!-- Created with Inkscape (http://www.inkscape.org/) -->

<svg
   xmlns:osb="http://www.openswatchbook.org/uri/2009/osb"
   xmlns:dc="http://purl.org/dc/elements/1.1/"
   xmlns:cc="http://creativecommons.org/ns#"
   xmlns:rdf="http://www.w3.org/1999/02/22-rdf-syntax-ns#"
   xmlns:svg="http://www.w3.org/2000/svg"
   xmlns="http://www.w3.org/2000/svg"
   xmlns:sodipodi="http://sodipodi.sourceforge.net/DTD/sodipodi-0.dtd"
   xmlns:inkscape="http://www.inkscape.org/namespaces/inkscape"
   width="297mm"
   height="210mm"
   viewBox="0 0 297 210"
   version="1.1"
   id="svg8"
   inkscape:version="0.92.4 (5da689c313, 2019-01-14)"
   sodipodi:docname="tlo2.svg">
  <defs
     id="defs2">
    <linearGradient
       osb:paint="solid"
       id="linearGradient819">
      <stop
         id="stop817"
         offset="0"
         style="stop-color:#ff6600;stop-opacity:1;" />
    </linearGradient>
  </defs>
  <sodipodi:namedview
     id="base"
     pagecolor="#ffffff"
     bordercolor="#666666"
     borderopacity="1.0"
     inkscape:pageopacity="0.0"
     inkscape:pageshadow="2"
     inkscape:zoom="1.979899"
     inkscape:cx="173.06705"
     inkscape:cy="-201.33132"
     inkscape:document-units="mm"
     inkscape:current-layer="layer1"
     showgrid="false"
     inkscape:window-width="1920"
     inkscape:window-height="1017"
     inkscape:window-x="-8"
     inkscape:window-y="-8"
     inkscape:window-maximized="1" />
  <metadata
     id="metadata5">
    <rdf:RDF>
      <cc:Work
         rdf:about="">
        <dc:format>image/svg+xml</dc:format>
        <dc:type
           rdf:resource="http://purl.org/dc/dcmitype/StillImage" />
        <dc:title />
      </cc:Work>
    </rdf:RDF>
  </metadata>
  <g
     inkscape:label="Layer 1"
     inkscape:groupmode="layer"
     id="layer1"
     transform="translate(0,-87)">
    <path
       style="fill:none;stroke:#000000;stroke-width:0.26458332px;stroke-linecap:butt;stroke-linejoin:miter;stroke-opacity:1"
       d="m 50.781209,84.788 32.072344,228.78271 -104.235115,1.06908 9.621703,-228.782712 z"
       id="path3719"
       inkscape:connector-curvature="0" />
    <path
       style="fill:#ffcc00;stroke-width:0.53453904"
       d="m 5.3272054,305.85559 c 0.0422,-5.62251 9.4738696,-225.542152 9.6816896,-225.749972 0.25716,-0.25716 61.466952,-1.48584 61.629322,-1.2371 0.11692,0.1791 31.871133,227.159632 31.850873,227.671412 -0.007,0.18476 -21.842543,0.49248 -48.522725,0.68381 -26.68018,0.19134 -49.89253,0.48474 -51.5830096,0.65201 l -3.0736,0.30411 z"
       id="path3897"
       inkscape:connector-curvature="0" />
    <rect
       style="fill:#ffcc00;stroke-width:0.28157061"
       id="rect32"
       width="105.83874"
       height="251.23334"
       x="-52.919365"
       y="60.199207"
       ry="8.4753504" />
    <g
       transform="translate(129.3434,-2.1025285)"
       id="layer1-5"
       inkscape:label="Layer 1"
       style="fill:#ff2a2a">
      <path
         id="rect815"
         transform="matrix(0.26458333,0,0,0.26458333,0,87)"
         d="m 628,40.404297 a 63.296457,63.296457 0 0 0 -63.29688,63.294923 63.296457,63.296457 0 0 0 50.31055,61.87695 V 271.84961 H 511.7793 V 126.64062 c 0,-0.18064 -0.0144,-0.35789 -0.0273,-0.53515 l 0.004,-1.06055 c 0.01,-3.11334 -2.49026,-5.64045 -5.60352,-5.66601 l -106.60742,-0.875 A 63.296457,63.296457 0 0 0 337,64.404297 63.296457,63.296457 0 0 0 273.70312,127.69922 63.296457,63.296457 0 0 0 337,190.99609 63.296457,63.296457 0 0 0 398.02734,144.46484 l 87.77735,0.72071 v 126.66406 h -19.80274 c -16.47723,0 -29.74218,13.26495 -29.74218,29.74219 v 55.58984 l -167.80079,-0.90039 v -59.33984 a 63.296457,63.296457 0 0 0 51.09766,-62.0918 63.296457,63.296457 0 0 0 -63.29687,-63.29492 63.296457,63.296457 0 0 0 -63.29688,63.29492 63.296457,63.296457 0 0 0 49.52344,61.69922 v 81.58789 c 0,2.20538 1.77508,3.98047 3.98047,3.98047 h 3.7832 c 0.27886,0.0285 0.56134,0.0453 0.84766,0.0469 l 185.16211,0.99024 v 108.95312 c 0,1.15787 0.0717,2.29727 0.19921,3.41992 l -120.73437,-0.69726 a 63.296457,63.296457 0 0 0 -62.60547,-54.48828 63.296457,63.296457 0 0 0 -63.29687,63.29492 63.296457,63.296457 0 0 0 63.29687,63.29687 63.296457,63.296457 0 0 0 60.91602,-46.13671 l 148.57031,0.85546 c 1.11512,0.12578 2.24666,0.19727 3.39648,0.19727 h 18.81446 v 99.17773 L 392.35742,620.2637 A 63.296457,63.296457 0 0 0 330,567.4043 63.296457,63.296457 0 0 0 266.70312,630.69922 63.296457,63.296457 0 0 0 330,693.99609 63.296457,63.296457 0 0 0 391.30469,646.22852 l 97.92187,0.80859 c 0.4522,0.11197 0.92239,0.17773 1.41016,0.17773 h 14.33203 c 0.41588,0 0.82018,-0.0448 1.21094,-0.12695 2.62442,-0.43681 4.61638,-2.69286 4.625,-5.45117 l 0.0449,-14.81445 c 8.4e-4,-0.26978 -0.0227,-0.53333 -0.0586,-0.79297 V 521.84961 h 91.99609 V 637.4668 a 63.296457,63.296457 0 0 0 -51.07227,62.08593 63.296457,63.296457 0 0 0 63.29688,63.29688 63.296457,63.296457 0 0 0 63.29687,-63.29688 63.296457,63.296457 0 0 0 -49.54687,-61.70312 v -116 h 27.75586 c 16.47723,0 29.74219,-13.26495 29.74219,-29.74219 v -15.86914 l 102.76953,0.81445 V 587.13672 A 63.296457,63.296457 0 0 0 738.48242,649.125 63.296457,63.296457 0 0 0 801.7793,712.42188 63.296457,63.296457 0 0 0 865.07617,649.125 63.296457,63.296457 0 0 0 815.00391,587.30469 V 457.85352 c 0,-0.14112 -0.0128,-0.27912 -0.0215,-0.41797 l 0.002,-0.33008 c 0.0105,-3.22539 -2.57743,-5.84163 -5.80274,-5.86719 L 686.2598,450.26367 v -94.06055 l 142.55468,0.91211 c 0.36988,0.086 0.75164,0.14258 1.14844,0.14258 h 15.9082 c 2.78804,0 5.03321,-2.24516 5.03321,-5.0332 v -1.63672 c 0.0133,-0.1746 0.0286,-0.34935 0.0293,-0.52734 l 0.0469,-11.58008 c 10e-4,-0.34628 -0.0307,-0.68432 -0.0762,-1.01758 V 248.28906 A 63.296457,63.296457 0 0 0 905.29688,185.69922 63.296457,63.296457 0 0 0 842,122.4043 a 63.296457,63.296457 0 0 0 -63.29688,63.29492 63.296457,63.296457 0 0 0 46.22657,60.94336 v 84.47461 L 686.25977,330.22852 V 301.5918 c 0,-16.47724 -13.26496,-29.74219 -29.74219,-29.74219 H 640.98633 V 165.62891 A 63.296457,63.296457 0 0 0 691.29688,103.69922 63.296457,63.296457 0 0 0 628,40.404297 Z m 0,29.115234 A 34.180495,34.180495 0 0 1 662.18164,103.69922 34.180495,34.180495 0 0 1 628,137.88086 34.180495,34.180495 0 0 1 593.81836,103.69922 34.180495,34.180495 0 0 1 628,69.519531 Z m -291,24 A 34.180495,34.180495 0 0 1 371.18164,127.69922 34.180495,34.180495 0 0 1 337,161.88086 34.180495,34.180495 0 0 1 302.81836,127.69922 34.180495,34.180495 0 0 1 337,93.519531 Z M 842,151.51953 A 34.180495,34.180495 0 0 1 876.18164,185.69922 34.180495,34.180495 0 0 1 842,219.88086 34.180495,34.180495 0 0 1 807.81836,185.69922 34.180495,34.180495 0 0 1 842,151.51953 Z m -585.74023,49.15039 a 34.180495,34.180495 0 0 1 34.18164,34.17969 34.180495,34.180495 0 0 1 -34.18164,34.18164 34.180495,34.180495 0 0 1 -34.18165,-34.18164 34.180495,34.180495 0 0 1 34.18165,-34.17969 z m 235.71484,104.19336 h 138.57031 c 13.36751,0 24.12891,10.7614 24.12891,24.12891 v 135.71679 c 0,13.36751 -10.7614,24.12891 -24.12891,24.12891 H 491.97461 c -13.36751,0 -24.12891,-10.7614 -24.12891,-24.12891 V 328.99219 c 0,-13.36751 10.7614,-24.12891 24.12891,-24.12891 z M 253.11914,469.45703 a 34.180495,34.180495 0 0 1 34.18164,34.17969 34.180495,34.180495 0 0 1 -34.18164,34.18164 34.180495,34.180495 0 0 1 -34.18164,-34.18164 34.180495,34.180495 0 0 1 34.18164,-34.17969 z M 330,596.51953 A 34.180495,34.180495 0 0 1 364.18164,630.69922 34.180495,34.180495 0 0 1 330,664.88086 34.180495,34.180495 0 0 1 295.81836,630.69922 34.180495,34.180495 0 0 1 330,596.51953 Z m 471.7793,18.42578 A 34.180495,34.180495 0 0 1 835.96094,649.125 34.180495,34.180495 0 0 1 801.7793,683.30664 34.180495,34.180495 0 0 1 767.59766,649.125 34.180495,34.180495 0 0 1 801.7793,614.94531 Z m -186.76758,50.42774 a 34.180495,34.180495 0 0 1 34.18164,34.17968 34.180495,34.180495 0 0 1 -34.18164,34.18165 34.180495,34.180495 0 0 1 -34.18164,-34.18165 34.180495,34.180495 0 0 1 34.18164,-34.17968 z"
         style="opacity:1;fill:#3a3a44;fill-opacity:1;stroke:none;stroke-width:20.00126076;stroke-linecap:round;stroke-linejoin:round;stroke-miterlimit:14.39999962;stroke-dasharray:none;stroke-opacity:1;paint-order:fill markers stroke"
         inkscape:connector-curvature="0" />
    </g>
    <rect
       style="fill:#00ff00;fill-opacity:1;stroke-width:0.26458332"
       id="rect14"
       width="336.75961"
       height="44.901279"
       x="-0.5345372"
       y="317.84702"
       ry="8.4753447" />
    <rect
       style="fill:#000000;fill-opacity:1;stroke-width:0.26458332"
       id="rect35"
       width="42.228584"
       height="332.48328"
       x="-40.143234"
       y="14.465073"
       ry="0" />
  </g>
</svg>
